<svg xmlns="http://www.w3.org/2000/svg" width="1400" height="760" viewBox="0 0 1400 760" role="img" aria-label="STICKER 옷 추천 서비스 구조"><defs><marker id="b" markerWidth="10" markerHeight="10" refX="9" refY="5" orient="auto"><path d="M0 0L10 5L0 10Z" fill="#2563eb"/></marker><marker id="g" markerWidth="10" markerHeight="10" refX="9" refY="5" orient="auto"><path d="M0 0L10 5L0 10Z" fill="#16a34a"/></marker><marker id="n" markerWidth="10" markerHeight="10" refX="9" refY="5" orient="auto"><path d="M0 0L10 5L0 10Z" fill="#64748b"/></marker><style>.z{fill:#f8fafc;stroke:#cbd5e1;stroke-width:2}.c{fill:#f0fdf4;stroke:#4ade80;stroke-width:2}.s{fill:#eff6ff;stroke:#60a5fa;stroke-width:2}.p{fill:#faf5ff;stroke:#c084fc;stroke-width:2}.a{fill:#fffbeb;stroke:#fbbf24;stroke-width:2}.node{fill:#fff;stroke:#94a3b8;stroke-width:2}.t{font:700 30px Arial,'Noto Sans KR',sans-serif;fill:#0f172a}.zt{font:700 18px Arial,'Noto Sans KR',sans-serif;fill:#334155}.l{font:700 18px Arial,'Noto Sans KR',sans-serif;fill:#0f172a;text-anchor:middle}.sm{font:600 14px Arial,'Noto Sans KR',sans-serif;fill:#475569;text-anchor:middle}.fb{fill:none;stroke:#2563eb;stroke-width:2.5;marker-end:url(#b)}.fg{fill:none;stroke:#16a34a;stroke-width:2.5;marker-end:url(#g)}.fn{fill:none;stroke:#64748b;stroke-width:2.5;marker-end:url(#n)}.lb{font:700 13px Arial,'Noto Sans KR',sans-serif;fill:#1d4ed8;text-anchor:middle}.lg{font:700 13px Arial,'Noto Sans KR',sans-serif;fill:#15803d;text-anchor:middle}.ln{font:700 13px Arial,'Noto Sans KR',sans-serif;fill:#334155;text-anchor:middle}</style></defs><rect width="1400" height="760" fill="#fff"/><text class="t" x="55" y="52">STICKER 옷 추천 서비스 구조</text><rect class="z" x="45" y="90" width="250" height="590" rx="22"/><text class="zt" x="75" y="128">모바일 앱</text><rect class="c" x="85" y="285" width="170" height="120" rx="16"/><text class="l" x="170" y="337">옷 추천 화면</text><text class="sm" x="170" y="365">모바일 화면 개발 도구</text><rect class="z" x="355" y="90" width="500" height="590" rx="22"/><text class="zt" x="385" y="128">Java 서버 프로그램</text><rect class="s" x="430" y="180" width="220" height="110" rx="16"/><text class="l" x="540" y="226">화면 요청 처리</text><text class="sm" x="540" y="252">로그인, 옷장, 날씨</text><rect class="node" x="405" y="390" width="150" height="95" rx="15"/><text class="l" x="480" y="430">서비스 데이터베이스</text><text class="sm" x="480" y="455">사용자, 옷장, 추천 결과</text><rect class="node" x="585" y="390" width="150" height="95" rx="15"/><text class="l" x="660" y="430">빠른 임시 저장소</text><text class="sm" x="660" y="455">임시 보관, 중복 방지, 로그인 정보</text><rect class="node" x="495" y="530" width="150" height="90" rx="15"/><text class="l" x="570" y="570">이미지 저장소</text><text class="sm" x="570" y="595">옷 이미지</text><rect class="z" x="920" y="90" width="435" height="590" rx="22"/><text class="zt" x="950" y="128">인공지능 추천 처리 흐름</text><rect class="p" x="970" y="180" width="150" height="95" rx="15"/><text class="l" x="1045" y="220">추천 요청 대기열</text><text class="sm" x="1045" y="245">요청 대기</text><rect class="p" x="1160" y="285" width="150" height="110" rx="15"/><text class="l" x="1235" y="330">인공지능 추천 서버</text><text class="sm" x="1235" y="355">추천 결과 계산</text><rect class="p" x="970" y="440" width="150" height="95" rx="15"/><text class="l" x="1045" y="480">추천 결과 대기열</text><text class="sm" x="1045" y="505">결과 대기</text><rect class="a" x="1160" y="540" width="150" height="80" rx="15"/><text class="l" x="1235" y="580">기상청 날씨 정보</text><text class="sm" x="1235" y="602">날씨</text><path class="fb" d="M255 315H430"/><text class="lb" x="342" y="301">화면의 요청</text><path class="fg" d="M430 375H255"/><text class="lg" x="342" y="395">응답과 알림</text><path class="fn" d="M505 290V390"/><text class="ln" x="460" y="350">정보 읽기와 저장</text><path class="fn" d="M615 290V390"/><text class="ln" x="660" y="350">임시 저장과 중복 방지</text><path class="fn" d="M570 290V530"/><text class="ln" x="620" y="515">옷 이미지</text><path class="fb" d="M650 220H970"/><text class="lb" x="810" y="206">추천 작업 등록</text><path class="fb" d="M1120 225H1160V315"/><text class="lb" x="1140" y="208">대기 작업 처리</text><path class="fg" d="M1160 365H1140V487H1120"/><text class="lg" x="1160" y="430">추천 결과 등록</text><path class="fg" d="M970 487H860V250H650"/><text class="lg" x="860" y="472">추천 결과 전달</text><path class="fn" d="M650 265H880V580H1160"/><text class="ln" x="940" y="565">날씨 조회</text><path class="fg" d="M1160 605H850V285H650"/><text class="lg" x="950" y="630">날씨 정보 전달</text></svg>